 <svg xmlns="http://www.w3.org/2000/svg" id="bc1ba8c6-6118-4909-9342-e897e4cbe163" data-name="Layer 1" viewBox="0 0 150 150"><defs><style>.a29fadad-87cd-45dd-b870-cd004368b1e6{fill:#333;fill-rule:evenodd;}</style></defs><title>protocol-3</title><path class="a29fadad-87cd-45dd-b870-cd004368b1e6" d="M72.27,133.17H61.85a7,7,0,0,1,1.19-2.9,14.17,14.17,0,0,1,3.25-3.08c1-.85,1.71-1.36,2-1.71a4.32,4.32,0,0,0,.34-1.19,1.33,1.33,0,0,0-.34-.86,1.49,1.49,0,0,0-1-.51,1.54,1.54,0,0,0-1.19.51,3.76,3.76,0,0,0-.52,1.37l-3.41-.17a6.66,6.66,0,0,1,.68-2.39,3.69,3.69,0,0,1,1.54-1.2,6,6,0,0,1,2.73-.51,6.87,6.87,0,0,1,2.91.51,2.73,2.73,0,0,1,1.53,1.2,4.05,4.05,0,0,1,.52,2.05,3.33,3.33,0,0,1-.69,2A6,6,0,0,1,69,128.56c-.68.51-1.2.85-1.37,1-.17.35-.51.52-.85.86h5.47ZM135.82,56C144.36,62.44,150,73.55,150,86.19v.68c-21.18,10.77-42.37,10.25-63.55,0v-.68c0-12.3,5.46-23.06,13.66-29.56A25.81,25.81,0,0,0,135.82,56ZM31.09,16.83A21.1,21.1,0,1,1,10.08,38a21.07,21.07,0,0,1,21-21.18ZM49.2,56c8.72,6.49,14.35,17.6,14.35,30.24v.68C42.37,97.64,21.18,97.12,0,86.87v-.68c0-12.3,5.47-23.06,13.67-29.56a25.55,25.55,0,0,0,17.42,6.84A24.74,24.74,0,0,0,49.2,56Zm68.34-39.12A21.1,21.1,0,1,1,96.53,38a21.06,21.06,0,0,1,21-21.18Zm-94,94.47,15.2-7.51v4.61h72.61v-4.61l15,7.51-15,7.52v-4.61H38.78v4.61Zm50.74,9.57h5l1.88,7.52,2-7.52h5v12.3H85.08v-9.39l-2.39,9.39H79.78l-2.39-9.39v9.39H74.32Z"></path></svg>