 <svg xmlns="http://www.w3.org/2000/svg" id="b0fe75c6-692e-441c-ae95-117c49c47f25" data-name="Layer 1" viewBox="0 0 150 150"><defs><style>.ff452229-05c2-4ff9-b426-bfc8edf0f91c{fill:#333;}</style></defs><title>protocol-5</title><path class="ff452229-05c2-4ff9-b426-bfc8edf0f91c" d="M15.94,60.3a1.18,1.18,0,0,1-.28-1.7,1.13,1.13,0,0,1,1.55-.28c.15,0,4.81,3.82,32.52-15.55h0c0-.14,12-9.05,24.32-9.48h1.27c12.3.43,24.31,9.34,24.31,9.48h0c27.71,19.37,32.52,15.55,32.52,15.55a1.32,1.32,0,0,1,1.7.28,1.35,1.35,0,0,1-.43,1.7s-6.08,4.8-35.2-15.7h0S86.49,36,74.75,35.7C63,36,51.14,44.6,51.14,44.6h0C22,65.1,15.94,60.3,15.94,60.3Zm96.56,43.12c2.69,3.67,6.36,5.09,10.32,4s8.62-4.52,14-9.89a49.55,49.55,0,0,0,11.59-17.81c2.12-6.23,2.26-11.88-.43-15.27-4.52-6.08-13.29-2-15.26-1C124,65,102.18,51.25,93.13,44.89a32.46,32.46,0,0,0-17.39-5.52H74.19a31.63,31.63,0,0,0-17.25,5.52C50.15,49.55,36.3,58.46,26.12,62l-5.94,1.42a10.5,10.5,0,0,1-3,0c-2-1-10.74-5.09-15.26,1-2.55,3.39-2.55,9-.29,15.27C3.64,85.6,7.74,92,13.11,97.48c5.52,5.37,10,8.76,14,9.89s7.63-.28,10.32-4a58.88,58.88,0,0,0,35.91,13.29h3.25c13-.43,25.87-4.81,35.91-13.29ZM73.76,91.26h2.41c9.19.42,14.7,5.23,18.66,8.9h0c-6.93-4.8-13.15-6.64-18.66-6.78h0l-.43-.14H74.19l-.43.14h0c-5.37.14-11.73,2-18.52,6.78h0c3.82-3.67,9.33-8.48,18.52-8.9ZM74.47,60h1c15.13.29,24.17,8.2,30.39,14h0c-11-7.78-21.2-10.46-30-10.74H74.05c-8.77.28-18.81,3-29.83,10.74h0c6.08-5.8,15.12-13.71,30.25-14ZM74.19,77.4h1.55c12.3.29,19.65,6.79,24.74,11.45h0c-9-6.36-17.39-8.62-24.6-8.76V80H74.19v.14c-7.35.14-15.7,2.4-24.74,8.76h0c5.09-4.66,12.44-11.16,24.74-11.45ZM19.33,75.14l.29.71.14.42v.14l.14.15V77h0l.14.42.14.14v.29l.14.28h0l.15.42.14.15V79l.14.28v.14h0l.56,1.13.14.43h0l.15.42.14.28v.15l.14.42H22l.14.42.43.85.14.43v.14l.14.28.14.28.14.14v.15l.43.7.14.29.14.14.14.42h0l.28.57v.14l.14.28.29.28v.14l.28.43v.14l.28.28.14.29v.14l.29.42v.14L26,90l.14.28.14.14.28.42h0l.29.43.14.28.14.14.28.43v.14l.29.42h0L28,93v.15l.28.28v.14l.42.42.15.29.28.42h0l.14.14.28.43h.14l.29.42.14.28h0l.42.43.14.14h0l.15.14.28.42h0l.28.29.28.42h0a8.59,8.59,0,0,0,1.13,1.13V99l.43.43.14.14h0l.42.42.15.14.14.15.42.42h0l.14.14.29.28.14.15.14.14.42.42c-2,2.83-4.8,4.1-7.77,3.25-3.54-1-7.78-4.24-13-9.33a46.15,46.15,0,0,1-10.89-17C2,73.44,1.8,68.64,3.78,66c3.68-5,11.6-.85,12.59-.28l1,.85h0v.14h0v.14h0v.14h0l.14.14h0v.14h0v.15h0v.14h0v.14h0v.14h.14v.14h0v.14h0v.14h0v.15h0v.14h.14v.14h0v.14h0v.14h0v.14h0v.14h.14v.15h0v.14Zm113.24-8.62,1-.85c1-.57,8.91-4.67,12.59.28,2,2.69,1.83,7.49,0,12.87a46.62,46.62,0,0,1-11,17c-5.09,5.09-9.47,8.34-12.87,9.33-3.11.85-5.93-.42-7.91-3.25,13.29-12.16,17.1-28.56,18.23-35.34Z"></path></svg>