 <svg xmlns="http://www.w3.org/2000/svg" id="fc335d76-f6f6-4d53-998a-33504ccd4493" data-name="Layer 1" viewBox="0 0 150 150"><defs><style>.b4014e33-99de-4bff-a040-79cf4526fd82{fill:#333;fill-rule:evenodd;}</style></defs><title>protocol-2</title><path class="b4014e33-99de-4bff-a040-79cf4526fd82" d="M43.76,13.15c2.63,0,16.45,21.18,16.45,30.28a16.45,16.45,0,0,1-32.9,0c0-9.1,14-30.28,16.45-30.28Zm6.3-4.72a2.68,2.68,0,0,1-4-.53,2.79,2.79,0,0,1,.35-4c.17-.18,10.67-8.75,31.5.17l.17.18h.18s5.25,3.5,19.07-.35A3,3,0,0,1,101,6a2.92,2.92,0,0,1-2.1,3.67c-2.63.7-5.08,1.23-7.18,1.58V32.75h6.65a4,4,0,0,1,4,4v9.1H70.19v-9.1a4,4,0,0,1,4-4h6.13V11.05a12.67,12.67,0,0,1-4.9-1.57c-17.5-7.35-25.2-1.05-25.38-1.05Zm54.25,41a35.84,35.84,0,0,1,18.38,31.15v.17H49.89v-.17A35.85,35.85,0,0,1,68.26,49.38Zm18.38,34.3v43.57H49.89V83.68Zm0,46.37V142.3a7.62,7.62,0,0,1-7.53,7.7H57.41a7.73,7.73,0,0,1-7.52-7.7V130.05Zm-81-79.45V44.3h-6.3V39.93h6.3V33.8h4.2v6.13h6.3V44.3h-6.3v6.3Z"></path></svg>